<svg width="184" height="158" viewBox="0 0 184 158" fill="none" xmlns="http://www.w3.org/2000/svg">
<path d="M0.0348341 29.0019C0.0348341 21.5768 6.07756 15.5576 13.5316 15.5576H169.539C177.526 15.5576 184 22.0068 184 29.9622V132.364C184 140.32 177.526 146.769 169.539 146.769H14.4957C6.50916 146.769 0.0348341 140.32 0.0348341 132.364V29.0019Z" fill="#C4C4C4"/>
<path d="M0.0348341 29.0019C0.0348341 21.5768 6.07756 15.5576 13.5316 15.5576H169.539C177.526 15.5576 184 22.0068 184 29.9622V132.364C184 140.32 177.526 146.769 169.539 146.769H14.4957C6.50916 146.769 0.0348341 140.32 0.0348341 132.364V29.0019Z" fill="#47A8D7"/>
<path d="M58.251 0.0844727L77.8837 15.1278V41.776H0V13.4086C1.03557 5.32815 8.48596 1.159 12.0817 0.0844727H58.251Z" fill="#C4C4C4"/>
<path d="M58.251 0.0844727L77.8837 15.1278V41.776H0V13.4086C1.03557 5.32815 8.48596 1.159 12.0817 0.0844727H58.251Z" fill="#47A8D7"/>
<rect x="0.03479" y="29.3639" width="183.965" height="127.721" rx="14" fill="#74D1F9"/>
</svg>
